<?xml version="1.0" encoding="UTF-8"?>
<!DOCTYPE svg
  PUBLIC '-//W3C//DTD SVG 1.1//EN'
  'http://www.w3.org/Graphics/SVG/1.1/DTD/svg11.dtd'>
<svg height="23.764mm" version="1.1" width="44.350mm" xmlns="http://www.w3.org/2000/svg">
    <!--Autogenerated with python-barcode 0.14.0-->
    <g id="barcode_group">
        <rect height="100%" style="fill:white" width="100%"/>
        <rect height="15.000mm" style="fill:black;" width="0.330mm" x="6.500mm" y="1.000mm"/>
        <rect height="15.000mm" style="fill:black;" width="0.330mm" x="7.160mm" y="1.000mm"/>
        <rect height="15.000mm" style="fill:black;" width="0.330mm" x="8.150mm" y="1.000mm"/>
        <rect height="15.000mm" style="fill:black;" width="0.660mm" x="9.140mm" y="1.000mm"/>
        <rect height="15.000mm" style="fill:black;" width="1.320mm" x="10.130mm" y="1.000mm"/>
        <rect height="15.000mm" style="fill:black;" width="0.330mm" x="11.780mm" y="1.000mm"/>
        <rect height="15.000mm" style="fill:black;" width="0.990mm" x="12.770mm" y="1.000mm"/>
        <rect height="15.000mm" style="fill:black;" width="0.330mm" x="14.090mm" y="1.000mm"/>
        <rect height="15.000mm" style="fill:black;" width="0.660mm" x="14.750mm" y="1.000mm"/>
        <rect height="15.000mm" style="fill:black;" width="0.330mm" x="16.400mm" y="1.000mm"/>
        <rect height="15.000mm" style="fill:black;" width="0.330mm" x="18.050mm" y="1.000mm"/>
        <rect height="15.000mm" style="fill:black;" width="0.330mm" x="18.710mm" y="1.000mm"/>
        <rect height="15.000mm" style="fill:black;" width="0.330mm" x="19.700mm" y="1.000mm"/>
        <rect height="15.000mm" style="fill:black;" width="0.330mm" x="21.020mm" y="1.000mm"/>
        <rect height="15.000mm" style="fill:black;" width="0.330mm" x="21.680mm" y="1.000mm"/>
        <rect height="15.000mm" style="fill:black;" width="0.330mm" x="22.340mm" y="1.000mm"/>
        <rect height="15.000mm" style="fill:black;" width="0.660mm" x="23.000mm" y="1.000mm"/>
        <rect height="15.000mm" style="fill:black;" width="0.660mm" x="24.320mm" y="1.000mm"/>
        <rect height="15.000mm" style="fill:black;" width="0.660mm" x="25.310mm" y="1.000mm"/>
        <rect height="15.000mm" style="fill:black;" width="0.660mm" x="26.300mm" y="1.000mm"/>
        <rect height="15.000mm" style="fill:black;" width="0.990mm" x="27.620mm" y="1.000mm"/>
        <rect height="15.000mm" style="fill:black;" width="0.330mm" x="28.940mm" y="1.000mm"/>
        <rect height="15.000mm" style="fill:black;" width="0.330mm" x="29.930mm" y="1.000mm"/>
        <rect height="15.000mm" style="fill:black;" width="0.330mm" x="30.920mm" y="1.000mm"/>
        <rect height="15.000mm" style="fill:black;" width="0.990mm" x="32.240mm" y="1.000mm"/>
        <rect height="15.000mm" style="fill:black;" width="0.330mm" x="33.560mm" y="1.000mm"/>
        <rect height="15.000mm" style="fill:black;" width="0.660mm" x="34.550mm" y="1.000mm"/>
        <rect height="15.000mm" style="fill:black;" width="0.660mm" x="35.870mm" y="1.000mm"/>
        <rect height="15.000mm" style="fill:black;" width="0.330mm" x="36.860mm" y="1.000mm"/>
        <rect height="15.000mm" style="fill:black;" width="0.330mm" x="37.520mm" y="1.000mm"/>
        <text style="fill:black;font-size:10pt;text-anchor:middle;" x="22.175mm" y="21.000mm">1234567129891</text>
    </g>
</svg>
